<svg width="186" height="56" viewBox="0 0 186 56" fill="none" xmlns="http://www.w3.org/2000/svg">
<rect width="56" height="56" rx="10" fill="#B5C2FF"/>
<rect x="28" y="11" width="28" height="34" fill="#D6DDFF"/>
<path d="M35 20.8222L28 11V45L35 36.4056V20.8222Z" fill="white"/>
<path d="M67.31 39V17.64H71.18V39H67.31ZM75.5354 39V28.14C75.5354 27.42 75.5154 26.7 75.4754 25.98C75.4554 25.26 75.3954 24.55 75.2954 23.85H78.8354L79.1654 26.85L78.8354 26.94C79.3154 25.8 80.0254 24.94 80.9654 24.36C81.9254 23.76 83.0254 23.46 84.2654 23.46C87.8654 23.46 89.6654 25.54 89.6654 29.7V39H85.9154V29.85C85.9154 28.67 85.6854 27.81 85.2254 27.27C84.7654 26.71 84.0554 26.43 83.0954 26.43C81.9354 26.43 81.0054 26.8 80.3054 27.54C79.6254 28.26 79.2854 29.22 79.2854 30.42V39H75.5354ZM99.1623 39.21C96.4023 39.21 94.2223 38.58 92.6223 37.32L93.6723 34.68C94.4723 35.28 95.3423 35.73 96.2823 36.03C97.2223 36.33 98.2023 36.48 99.2223 36.48C100.142 36.48 100.842 36.33 101.322 36.03C101.802 35.73 102.042 35.31 102.042 34.77C102.042 34.31 101.872 33.95 101.532 33.69C101.192 33.41 100.612 33.17 99.7923 32.97L97.2723 32.4C95.8923 32.1 94.8523 31.6 94.1523 30.9C93.4723 30.18 93.1323 29.27 93.1323 28.17C93.1323 27.25 93.3923 26.44 93.9123 25.74C94.4323 25.02 95.1623 24.46 96.1023 24.06C97.0423 23.66 98.1323 23.46 99.3723 23.46C100.452 23.46 101.492 23.63 102.492 23.97C103.492 24.29 104.362 24.76 105.102 25.38L104.022 27.96C103.262 27.38 102.482 26.95 101.682 26.67C100.902 26.39 100.122 26.25 99.3423 26.25C98.4823 26.25 97.8123 26.41 97.3323 26.73C96.8523 27.05 96.6123 27.49 96.6123 28.05C96.6123 28.49 96.7523 28.84 97.0323 29.1C97.3323 29.36 97.8423 29.57 98.5623 29.73L101.112 30.36C102.612 30.68 103.702 31.2 104.382 31.92C105.082 32.62 105.432 33.55 105.432 34.71C105.432 36.09 104.872 37.19 103.752 38.01C102.632 38.81 101.102 39.21 99.1623 39.21ZM108.612 39V23.85H112.362V39H108.612ZM108.432 16.98H112.602V20.67H108.432V16.98ZM130.925 39H127.235V35.16L127.595 35.7C127.255 36.82 126.605 37.69 125.645 38.31C124.705 38.91 123.595 39.21 122.315 39.21C120.995 39.21 119.825 38.89 118.805 38.25C117.805 37.59 117.025 36.66 116.465 35.46C115.905 34.26 115.625 32.87 115.625 31.29C115.625 29.71 115.895 28.33 116.435 27.15C116.995 25.97 117.785 25.06 118.805 24.42C119.825 23.78 120.995 23.46 122.315 23.46C123.595 23.46 124.705 23.78 125.645 24.42C126.605 25.06 127.255 25.92 127.595 27L127.175 27.45V16.92H130.925V39ZM123.335 36.33C124.575 36.33 125.535 35.9 126.215 35.04C126.895 34.18 127.235 32.95 127.235 31.35C127.235 29.77 126.895 28.55 126.215 27.69C125.535 26.83 124.575 26.4 123.335 26.4C122.075 26.4 121.095 26.83 120.395 27.69C119.695 28.53 119.345 29.73 119.345 31.29C119.345 32.89 119.695 34.13 120.395 35.01C121.095 35.89 122.075 36.33 123.335 36.33ZM147.999 37.32C147.279 37.92 146.389 38.39 145.329 38.73C144.289 39.05 143.229 39.21 142.149 39.21C140.509 39.21 139.089 38.9 137.889 38.28C136.709 37.66 135.799 36.76 135.159 35.58C134.519 34.4 134.199 33 134.199 31.38C134.199 29.82 134.509 28.45 135.129 27.27C135.749 26.07 136.609 25.14 137.709 24.48C138.809 23.8 140.079 23.46 141.519 23.46C142.919 23.46 144.119 23.77 145.119 24.39C146.119 24.99 146.889 25.86 147.429 27C147.989 28.14 148.269 29.49 148.269 31.05V31.62H137.499L137.529 29.61H146.049L145.029 30.63C145.049 29.17 144.759 28.06 144.159 27.3C143.579 26.54 142.729 26.16 141.609 26.16C140.409 26.16 139.479 26.59 138.819 27.45C138.159 28.29 137.829 29.5 137.829 31.08C137.829 32.88 138.199 34.21 138.939 35.07C139.679 35.91 140.799 36.33 142.299 36.33C143.119 36.33 143.919 36.2 144.699 35.94C145.499 35.66 146.239 35.26 146.919 34.74L147.999 37.32ZM149.466 26.67V23.85H159.456V26.67H149.466ZM159.996 20.13C159.436 19.97 158.936 19.89 158.496 19.89C158.056 19.89 157.646 19.98 157.266 20.16C156.906 20.32 156.616 20.6 156.396 21C156.196 21.38 156.096 21.9 156.096 22.56V39H152.346V22.38C152.346 20.58 152.796 19.2 153.696 18.24C154.616 17.28 155.926 16.8 157.626 16.8C158.046 16.8 158.456 16.82 158.856 16.86C159.256 16.9 159.636 16.99 159.996 17.13V20.13ZM167.832 39.21C165.972 39.21 164.572 38.7 163.632 37.68C162.712 36.64 162.252 35.08 162.252 33V23.85H166.002V33.03C166.002 34.13 166.232 34.94 166.692 35.46C167.152 35.98 167.842 36.24 168.762 36.24C169.862 36.24 170.742 35.88 171.402 35.16C172.062 34.44 172.392 33.48 172.392 32.28V23.85H176.172V39H172.512V35.88L172.902 35.85C172.462 36.95 171.802 37.79 170.922 38.37C170.042 38.93 169.012 39.21 167.832 39.21ZM180.184 39V16.92H183.934V39H180.184Z" fill="#223762"/>
</svg>
