<svg width="170" height="41" viewBox="0 0 170 41" fill="none" xmlns="http://www.w3.org/2000/svg">
<g clip-path="url(#clip0)">
<path d="M18.5496 34.9401L2.25913 18.5943C1.32052 17.6534 1.32052 16.1066 2.25913 15.1657C3.19775 14.2248 4.74089 14.2248 5.6795 15.1657L21.9859 31.5115C22.8131 32.3407 24.1654 32.3407 25.0085 31.5115C25.8358 30.6822 25.8358 29.3267 25.0085 28.4815L11.8839 15.3411C9.16349 12.6142 9.16349 8.18086 11.8839 5.45391C14.6043 2.72695 19.0269 2.72695 21.7472 5.45391L37.7514 21.4967C38.69 22.4376 38.69 23.9844 37.7514 24.9253C36.8128 25.8662 35.2696 25.8662 34.331 24.9253L18.3269 8.88253C17.4996 8.05329 16.1474 8.05329 15.3042 8.88253C14.4611 9.71178 14.477 11.0673 15.3042 11.9125L28.413 25.0529C31.1334 27.7799 31.1334 32.2131 28.413 34.9401C25.6926 37.6671 21.27 37.6671 18.5496 34.9401Z" fill="#6279F4"/>
<path d="M10.1021 39.4372L0.700052 30.0125C-0.238559 29.0716 -0.238559 27.5247 0.700052 26.5838C1.63866 25.643 3.1818 25.643 4.12042 26.5838L13.5224 36.0086C14.461 36.9495 14.461 38.4963 13.5224 39.4372C12.5838 40.3781 11.0566 40.3781 10.1021 39.4372Z" fill="#6279F4"/>
<path d="M35.9219 13.555L26.5199 4.14625C25.5813 3.20537 25.5813 1.6585 26.5199 0.717622C27.4585 -0.223257 29.0016 -0.223257 29.9402 0.717622L39.3423 10.1424C40.2809 11.0832 40.2809 12.6301 39.3423 13.571C38.4036 14.5119 36.8605 14.5119 35.9219 13.555Z" fill="#6279F4"/>
<path d="M130.595 20.3325C130.356 19.2322 129.926 17.8926 129.338 17.1431C128.733 16.3936 127.938 15.8195 126.952 15.4368C125.949 15.0541 124.692 14.7351 123.133 14.7351C121.733 14.7351 120.365 15.0859 119.045 15.5484C117.74 15.9949 116.563 16.7125 115.577 17.6215L118.186 20.3006C118.774 19.6309 119.459 19.1046 120.206 18.7219C120.954 18.3392 121.797 18.1478 122.704 18.1478C123.674 18.1478 124.502 18.4348 125.202 19.0249C125.902 19.6149 126.267 20.811 126.267 21.7997C125.504 21.7997 124.661 21.8156 123.77 21.8316C122.831 21.8316 121.861 21.9113 120.938 22.0389C118.647 22.3419 116.245 23.3784 115.1 25.5154C114.718 26.233 114.527 27.1101 114.527 28.1626C114.527 29.0716 114.702 29.8849 115.052 30.5706C115.402 31.2723 115.863 31.8464 116.468 32.3248C117.056 32.8032 117.74 33.154 118.52 33.3773C119.299 33.6165 119.649 33.7281 120.493 33.7281C121.622 33.7281 122.704 33.5208 123.738 33.0902C124.772 32.6756 125.583 31.9739 126.204 31.0012H126.283V33.2656H130.945V24.112C130.945 22.6768 130.833 21.4169 130.595 20.3325ZM126.283 26.5998C126.283 27.2057 126.156 27.7161 125.917 28.1626C125.663 28.6091 125.345 28.9759 124.931 29.2629C124.517 29.55 124.04 29.7732 123.515 29.9327C122.99 30.0922 122.433 30.1719 121.861 30.1719C121.208 30.1719 120.588 29.9965 119.999 29.6616C119.395 29.3267 119.109 28.8005 119.109 28.0988C119.109 27.445 119.315 26.9346 119.745 26.5838C120.174 26.217 120.684 25.9459 121.304 25.7705C121.924 25.5951 122.545 25.4835 123.213 25.4356C123.881 25.4037 124.422 25.3718 124.867 25.3718H126.299V26.5998H126.283Z" fill="white"/>
<path d="M64.5417 19.886C63.2372 18.6581 61.7577 18.2435 60.0236 18.2435C57.876 18.2435 56.6828 18.9133 56.6828 20.0615C56.6828 21.2575 57.7646 21.9273 60.0873 22.0708C63.5394 22.2941 67.9143 23.0755 67.9143 27.9393C67.9143 31.1766 65.2735 33.9673 60.0554 33.9673C57.1601 33.9673 54.2647 33.4889 51.592 30.6982L53.8193 27.4609C55.1238 28.9121 58.0828 29.9806 60.1191 30.0284C61.8213 30.0603 63.4281 29.1673 63.4281 27.8277C63.4281 26.5679 62.394 26.0416 59.785 25.8981C56.3328 25.643 52.2125 24.3672 52.2125 20.205C52.2125 15.9631 56.5874 14.48 59.9282 14.48C62.7758 14.48 64.9394 15.0381 67.0553 16.9039L64.5417 19.886Z" fill="white"/>
<path d="M88.9774 24.1917C88.9774 29.4702 85.3821 33.744 79.4482 33.744C73.5142 33.744 69.9507 29.4702 69.9507 24.1917C69.9507 18.9451 73.5779 14.6394 79.4163 14.6394C85.2548 14.6394 88.9774 18.9611 88.9774 24.1917ZM74.4847 24.1917C74.4847 26.9825 76.1551 29.5818 79.4482 29.5818C82.7412 29.5818 84.4117 26.9825 84.4117 24.1917C84.4117 21.4329 82.4867 18.7697 79.4482 18.7697C76.1869 18.7697 74.4847 21.4488 74.4847 24.1917Z" fill="white"/>
<path d="M105.554 33.3454V23.7453C105.554 20.9545 104.027 18.8335 101.148 18.8335C98.3635 18.8335 96.4704 21.1778 96.4704 23.9685V33.3454H91.9841V14.9743H96.0249L96.3272 17.4621C98.1885 15.6441 100.034 14.7032 102.341 14.7032C106.636 14.7032 110.088 17.9405 110.088 23.6974V33.3295H105.554V33.3454Z" fill="white"/>
<path d="M144.244 14.4959V14.5119C139.169 14.7192 135.049 17.9086 135.049 24.1918C135.049 30.6982 139.456 33.8876 144.769 33.8876C147.474 33.8876 149.701 33.0743 151.817 30.9852L148.778 28.0031C147.664 29.1194 146.217 29.534 144.769 29.534C141.953 29.534 139.583 27.6682 139.583 24.1758C139.583 20.9864 141.794 18.7538 144.833 18.7538L149.16 18.7698L147.426 14.48H144.244V14.4959Z" fill="white"/>
<path d="M164.989 15.0222L161.648 23.0436L159.755 28.0989L158.005 22.932L155.237 15.0222H155.221L155.03 14.496H149.764L152.421 21.0981L157.273 33.0425L153.853 41.0001H158.832L170 15.0222H164.989Z" fill="white"/>
</g>
<defs>
<clipPath id="clip0">
<rect width="170" height="41" fill="white"/>
</clipPath>
</defs>
</svg>
