<svg width="41" height="41" viewBox="0 0 41 41" fill="none" xmlns="http://www.w3.org/2000/svg">
<path d="M18.5535 34.9281L2.26304 18.5824C1.32443 17.6415 1.32443 16.0946 2.26304 15.1537C3.20165 14.2129 4.74479 14.2129 5.6834 15.1537L21.9898 31.4995C22.817 32.3288 24.1693 32.3288 25.0124 31.4995C25.8397 30.6703 25.8397 29.3148 25.0124 28.4696L11.8878 15.3291C9.1674 12.6022 9.1674 8.1689 11.8878 5.44194C14.6082 2.71499 19.0308 2.71499 21.7512 5.44194L37.7553 21.4847C38.6939 22.4256 38.6939 23.9725 37.7553 24.9134C36.8167 25.8542 35.2735 25.8542 34.3349 24.9134L18.3308 8.87057C17.5035 8.04132 16.1513 8.04132 15.3081 8.87057C14.465 9.69982 14.4809 11.0553 15.3081 11.9005L28.4169 25.0409C31.1373 27.7679 31.1373 32.2012 28.4169 34.9281C25.6965 37.6551 21.2739 37.6551 18.5535 34.9281Z" fill="#1A202C"/>
<path d="M10.106 39.4252L0.703958 30.0005C-0.234653 29.0596 -0.234653 27.5127 0.703958 26.5719C1.64257 25.631 3.18571 25.631 4.12432 26.5719L13.5263 35.9966C14.465 36.9375 14.465 38.4844 13.5263 39.4252C12.5877 40.3661 11.0605 40.3661 10.106 39.4252Z" fill="#1A202C"/>
<path d="M35.9258 13.5431L26.5238 4.13429C25.5852 3.19341 25.5852 1.64654 26.5238 0.705659C27.4624 -0.23522 29.0055 -0.23522 29.9441 0.705659L39.3462 10.1304C40.2848 11.0713 40.2848 12.6181 39.3462 13.559C38.4076 14.4999 36.8644 14.4999 35.9258 13.5431Z" fill="#1A202C"/>
</svg>
