<svg width="25" height="24" viewBox="0 0 25 24" fill="none" xmlns="http://www.w3.org/2000/svg">
<g clip-path="url(#clip0)">
<path d="M12.4694 0.00269902C5.6631 -0.140575 0.11823 5.44016 0.204359 12.0014C0.135349 18.5171 5.49192 23.8423 11.8815 23.9963C18.691 24.1609 24.0668 18.662 24.2006 12.2815C24.3423 5.49416 18.8446 0.136885 12.4694 0.00269902ZM17.49 17.2833C16.9342 17.8387 16.0333 17.8387 15.4775 17.2833L12.203 14.0109L8.92851 17.2833C8.65086 17.5607 8.28655 17.6997 7.92225 17.6997C7.55794 17.6997 7.19363 17.5607 6.91598 17.2833C6.36016 16.7278 6.36016 15.8275 6.91598 15.2721L10.1905 11.9998L6.91598 8.72745C6.63834 8.44999 6.49925 8.08592 6.49925 7.72185C6.49925 7.35779 6.63834 6.99372 6.91598 6.71626C7.47181 6.16081 8.37268 6.16081 8.92851 6.71626L12.203 9.98858L15.4775 6.71626C16.0333 6.16081 16.9342 6.16081 17.49 6.71626C18.0459 7.27172 18.0459 8.17199 17.49 8.72745L14.2155 11.9998L17.49 15.2721C18.0453 15.8275 18.0453 16.7278 17.49 17.2833Z" fill="#E87092"/>
</g>
<defs>
<clipPath id="clip0">
<rect x="0.203369" width="24" height="24" fill="white"/>
</clipPath>
</defs>
</svg>
