<svg width="25" height="24" viewBox="0 0 25 24" fill="none" xmlns="http://www.w3.org/2000/svg">
<g clip-path="url(#clip0)">
<path d="M0.648234 12.0021C0.560927 5.44123 6.10646 -0.139661 12.9133 0.00367795C19.2882 0.137669 24.787 5.49576 24.6436 12.2826C24.5095 18.6627 19.1339 24.1626 12.324 23.9974C5.93497 23.8432 0.578077 18.5178 0.648234 12.0021ZM19.4738 8.51368C19.4691 7.75024 18.8813 7.06159 18.0784 6.9198C17.4205 6.80451 16.8951 7.03977 16.4383 7.49472C14.6828 9.25374 12.9211 11.0065 11.1703 12.7718C10.9769 12.9665 10.8662 12.9603 10.6807 12.7687C10.0618 12.1283 9.42724 11.502 8.79271 10.8757C8.2408 10.3303 7.58912 10.1512 6.85793 10.4394C5.71047 10.8912 5.4501 12.3496 6.35591 13.2688C7.44881 14.3797 8.55417 15.4812 9.66421 16.575C10.4141 17.3135 11.4478 17.3119 12.1977 16.5672C14.4458 14.3298 16.6862 12.0847 18.9296 9.84268C19.2789 9.49368 19.4582 9.06834 19.4738 8.51368Z" fill="#71D6B0"/>
</g>
<defs>
<clipPath id="clip0">
<rect x="0.645752" width="24" height="24" fill="white"/>
</clipPath>
</defs>
</svg>
