<svg width="35" height="35" viewBox="0 0 35 35" fill="none" xmlns="http://www.w3.org/2000/svg">
<path d="M0.00343618 17.5026C-0.123886 7.93467 7.96336 -0.204121 17.89 0.00491611C27.1868 0.20032 35.2058 8.0142 34.9966 17.9116C34.8011 27.216 26.9617 35.2367 17.0305 34.9958C7.71326 34.7709 -0.0988764 27.0047 0.00343618 17.5026ZM27.4573 12.4153C27.4505 11.302 26.5934 10.2977 25.4224 10.0909C24.463 9.92279 23.6968 10.2659 23.0306 10.9294C20.4705 13.4946 17.9013 16.0507 15.3481 18.6251C15.0661 18.9091 14.9047 18.9 14.6341 18.6205C13.7315 17.6867 12.8062 16.7733 11.8808 15.8599C11.0759 15.0646 10.1256 14.8033 9.05924 15.2237C7.38586 15.8826 7.00617 18.0093 8.32714 19.3499C9.92094 20.9699 11.5329 22.5763 13.1518 24.1714C14.2454 25.2484 15.7528 25.2461 16.8464 24.16C20.1249 20.8972 23.3921 17.6231 26.6638 14.3535C27.1731 13.8445 27.4346 13.2242 27.4573 12.4153Z" fill="#4769FF"/>
</svg>
