<svg width="601" height="546" viewBox="0 0 601 546" fill="none" xmlns="http://www.w3.org/2000/svg">
<g clip-path="url(#clip0)">
<path opacity="0.49" fill-rule="evenodd" clip-rule="evenodd" d="M164.742 89.0001C295.362 107.63 389.062 15.6601 453.982 4.36008C551.452 -12.6399 664.172 81.1001 555.682 282.97C447.192 484.84 398.682 533.33 253.032 531.97C136.522 530.86 47.0318 433.87 15.9118 361.97C-32.7982 249.44 34.1318 70.3801 164.742 89.0001Z" fill="url(#paint0_linear)"/>
<path d="M499.563 44.3101H122.803V316.7H499.563V44.3101Z" fill="#002856"/>
<path d="M490.651 44.3101H118.461V316.7H490.651V44.3101Z" fill="url(#paint1_linear)"/>
<path d="M484.661 50.1699H124.461V310.82H484.661V50.1699Z" fill="white"/>
<path opacity="0.34" fill-rule="evenodd" clip-rule="evenodd" d="M124.462 50.1699L484.662 310.82H122.342L124.462 50.1699Z" fill="#D6E3FA"/>
<path d="M159.172 90.61C159.172 90.61 228.332 88.83 250.802 107.77C273.272 126.71 279.292 180.77 289.882 217.29C304.322 267.16 377.322 286.75 410.142 269.02" stroke="#707070" stroke-linecap="round"/>
<path d="M149.292 65.6201C149.292 65.6201 151.832 238.11 149.292 263.15L146.752 288.15C146.752 288.15 377.282 292.76 397.982 292.25L418.642 291.74" stroke="#707070" stroke-linecap="round"/>
<path fill-rule="evenodd" clip-rule="evenodd" d="M92.0524 212.7C92.0524 212.7 81.0524 261.01 80.7024 270.35C80.3524 279.69 108.862 313.6 108.862 313.6L122.342 249.77L92.0524 212.7Z" fill="url(#paint2_linear)"/>
<path fill-rule="evenodd" clip-rule="evenodd" d="M52.231 464.89L38.291 475.41C38.291 475.41 47.291 496.54 49.441 499.14C51.591 501.74 62.501 509.2 65.581 509C68.661 508.8 69.581 505.8 68.281 502.47C66.981 499.14 61.921 492.55 61.221 490.2C60.521 487.85 63.981 475.24 63.981 475.24L52.231 464.89Z" fill="url(#paint3_linear)"/>
<path fill-rule="evenodd" clip-rule="evenodd" d="M134.262 501.42L129.662 522.76C129.662 522.76 146.902 530.18 150.752 530.76C154.602 531.34 172.652 530.76 172.652 530.76C172.652 530.76 173.372 530.76 172.652 527.63C171.932 524.5 159.052 521.37 155.802 520.63C154.835 520.42 153.952 519.928 153.265 519.216C152.578 518.504 152.118 517.604 151.942 516.63L150.392 508.35L134.262 501.42Z" fill="url(#paint4_linear)"/>
<path fill-rule="evenodd" clip-rule="evenodd" d="M94.4223 319.16C94.4223 319.16 91.0823 338.66 92.8723 349C94.6623 359.34 102.362 413 102.362 413L49.6523 463.11C49.6523 463.11 52.0623 472.45 58.8023 474.95C65.5423 477.45 66.3823 477.12 66.3823 477.12C66.3823 477.12 122.832 434.23 128.122 426.05C133.412 417.87 134.982 323.84 134.982 323.84L94.4223 319.16Z" fill="url(#paint5_linear)"/>
<path opacity="0.09" fill-rule="evenodd" clip-rule="evenodd" d="M99.4521 216.9C100.339 217.51 101.257 218.074 102.202 218.59C101.985 218.785 101.834 219.043 101.769 219.328C101.705 219.612 101.73 219.91 101.842 220.18C109.842 236.64 104.462 291.76 101.522 316.69H174.372C172.192 296.57 168.072 255.91 169.982 252.1C171.092 249.88 171.152 245.38 170.872 241.02C170.502 235.38 169.562 229.95 169.562 229.95C170.772 225.8 222.372 216.33 227.362 207.18C232.352 198.03 248.752 140.4 248.752 140.4L247.652 139.75C249.652 136.62 253.652 129.63 252.342 126.48C252.182 126.09 251.981 125.718 251.742 125.37L257.792 124.37L262.792 120.52L265.592 120.05L265.132 117.31L262.362 117.78L256.362 115.78L255.462 115.93C255.622 115.718 255.701 115.455 255.682 115.19C255.342 113.7 255.682 112.45 252.372 112.33C250.322 112.26 245.552 114.87 241.782 118.24L231.892 119.92C231.659 119.96 231.436 120.045 231.236 120.172C231.036 120.298 230.863 120.462 230.726 120.655C230.589 120.848 230.492 121.067 230.44 121.297C230.388 121.528 230.382 121.767 230.422 122L231.282 127C231.322 127.233 231.408 127.456 231.534 127.656C231.66 127.856 231.824 128.03 232.017 128.166C232.211 128.303 232.429 128.4 232.66 128.452C232.89 128.504 233.129 128.51 233.362 128.47L236.222 127.99C235.933 131.149 236.02 134.331 236.482 137.47C235.702 137.65 235.202 137.81 235.202 137.81L210.942 193.81C210.542 194.72 186.322 198.93 185.342 199.12L150.242 207L146.852 207.48C148.617 202.653 149.707 197.605 150.092 192.48C152.242 191.78 153.712 191.2 154.492 187.23C154.852 185.39 154.642 181.83 154.562 177.62C155.782 177.72 157.562 177.62 157.412 176.06C157.202 174.06 155.572 167.42 155.102 165.57C155.202 164.9 155.312 164.23 155.452 163.57C155.809 161.333 155.596 159.042 154.832 156.91C155.715 155.839 156.433 154.643 156.962 153.36C159.962 146.36 148.912 128.72 129.542 130.71C120.792 131.61 114.352 133.8 109.292 140.27C107.258 142.795 105.576 145.583 104.292 148.56C98.5721 161.29 107.752 163.36 99.2921 180.76C91.0621 197.76 94.8821 213.73 99.4521 216.9Z" fill="url(#paint6_linear)"/>
<path fill-rule="evenodd" clip-rule="evenodd" d="M105.872 312.1C103.983 322.961 103.152 333.979 103.392 345C103.872 362.52 147.152 420.34 147.152 420.34L133.152 502.94C133.152 502.94 136.352 507.67 144.062 508.75L151.762 509.83C151.762 509.83 174.872 428.62 175.352 414.1C175.832 399.58 162.082 317.2 162.082 317.2L105.872 312.1Z" fill="url(#paint7_linear)"/>
<path fill-rule="evenodd" clip-rule="evenodd" d="M118.452 340.54C124.452 340.09 146.862 333.75 163.942 328.71C162.812 321.71 162.062 317.21 162.062 317.21L105.852 312.11C103.964 322.967 103.133 333.982 103.372 345C103.852 362.52 147.132 420.34 147.132 420.34L133.132 502.94C135.015 505.308 137.57 507.051 140.462 507.94C144.662 497.87 151.172 481.1 152.362 471.42C154.142 456.94 149.062 441.19 151.362 428.48C153.662 415.77 165.602 414.48 165.162 409.17C164.722 403.86 155.442 405.87 145.532 401.55C135.622 397.23 115.802 364.96 111.532 356.33C107.262 347.7 108.372 341.3 118.452 340.54Z" fill="url(#paint8_linear)"/>
<path fill-rule="evenodd" clip-rule="evenodd" d="M488.981 348.61C479.791 383.47 483.981 417.75 497.981 442.78C522.491 427.9 543.051 400.15 552.241 365.29C561.431 330.43 557.241 296.15 543.241 271.12C518.711 286 498.141 313.75 488.981 348.61Z" fill="url(#paint9_linear)"/>
<path d="M525.541 347.21C519.78 363.407 515.014 379.941 511.271 396.72C504.621 425.94 506.271 460.72 506.271 460.72" stroke="#061127" stroke-linecap="round" stroke-linejoin="round"/>
<path d="M486.791 337.17C486.791 337.17 490.791 370.69 495.701 396.52C500.611 422.35 503.961 456.52 503.961 456.52" stroke="#061127" stroke-linecap="round" stroke-linejoin="round"/>
<path d="M478.803 393.45C478.803 393.45 486.803 415.28 492.643 429.45C498.483 443.62 503.983 458.13 503.983 458.13" stroke="#061127" stroke-linecap="round" stroke-linejoin="round"/>
<path fill-rule="evenodd" clip-rule="evenodd" d="M512.391 214.55C508.221 245.09 511.841 273.27 520.851 292.32C534.641 276.39 545.691 250.22 549.851 219.68C554.011 189.14 550.401 160.96 541.391 141.91C527.611 157.83 516.561 184 512.391 214.55Z" fill="url(#paint10_linear)"/>
<path fill-rule="evenodd" clip-rule="evenodd" d="M484.053 263.54C485.313 235.54 487.173 185.1 488.243 155.68C468.843 179.68 456.393 216.5 456.393 257.82C456.393 298.66 468.563 335.08 487.583 359.11C485.463 330.89 482.913 289 484.053 263.54Z" fill="url(#paint11_linear)"/>
<path fill-rule="evenodd" clip-rule="evenodd" d="M521.741 257.82C521.741 215.91 508.951 178.62 489.061 154.62C488.781 154.96 488.511 155.33 488.241 155.67C487.171 185.09 485.311 235.57 484.051 263.53C482.911 288.99 485.461 330.89 487.571 359.1C488.071 359.73 488.571 360.39 489.061 361.01C508.981 337 521.741 299.73 521.741 257.82Z" fill="url(#paint12_linear)"/>
<path fill-rule="evenodd" clip-rule="evenodd" d="M521.982 286.44C514.452 311.57 515.422 336.23 522.982 354.19C539.212 343.38 553.592 323.32 561.122 298.19C568.652 273.06 567.682 248.4 560.122 230.44C543.862 241.25 529.492 261.31 521.982 286.44Z" fill="url(#paint13_linear)"/>
<path fill-rule="evenodd" clip-rule="evenodd" d="M540.122 531.06H468.182L457.502 437.82H550.802L540.122 531.06Z" fill="url(#paint14_linear)"/>
<path fill-rule="evenodd" clip-rule="evenodd" d="M457.502 437.82L468.182 531.06H495.712L487.742 437.82H457.502Z" fill="url(#paint15_linear)"/>
<path d="M554.442 435.16H453.852V458.14H554.442V435.16Z" fill="#FFD46A"/>
<path d="M490.503 276.75C492.546 276.75 494.203 273.791 494.203 270.14C494.203 266.489 492.546 263.53 490.503 263.53C488.459 263.53 486.803 266.489 486.803 270.14C486.803 273.791 488.459 276.75 490.503 276.75Z" fill="#414CE6"/>
<path d="M501.674 280.067C504.256 277.485 505.177 274.221 503.732 272.776C502.287 271.331 499.023 272.253 496.442 274.834C493.86 277.415 492.939 280.679 494.384 282.124C495.829 283.569 499.093 282.648 501.674 280.067Z" fill="#414CE6"/>
<path d="M501.445 316.117C504.987 312.575 506.251 308.095 504.267 306.111C502.283 304.127 497.803 305.39 494.261 308.932C490.719 312.475 489.456 316.954 491.44 318.938C493.424 320.922 497.903 319.659 501.445 316.117Z" fill="#414CE6"/>
<path d="M500.365 332.748C502.48 328.207 502.132 323.565 499.589 322.381C497.046 321.197 493.27 323.918 491.155 328.459C489.04 333 489.388 337.641 491.931 338.825C494.475 340.01 498.251 337.289 500.365 332.748Z" fill="#414CE6"/>
<path fill-rule="evenodd" clip-rule="evenodd" d="M434.921 350.13C446.401 379.13 465.451 401.35 485.761 412.49C457.631 380.72 429.241 269.88 429.241 269.88C422.071 291.9 423.441 321.17 434.921 350.13Z" fill="url(#paint16_linear)"/>
<path fill-rule="evenodd" clip-rule="evenodd" d="M480.082 332.23C468.602 303.23 449.552 281.01 429.242 269.87C429.242 269.87 457.642 380.71 485.762 412.48C492.932 390.46 491.552 361.19 480.082 332.23Z" fill="url(#paint17_linear)"/>
<path fill-rule="evenodd" clip-rule="evenodd" d="M480.082 332.23C468.602 303.23 449.552 281.01 429.242 269.87C429.242 269.87 457.642 380.71 485.762 412.48C492.932 390.46 491.552 361.19 480.082 332.23Z" fill="url(#paint18_linear)"/>
<path d="M462.363 358.052C463.82 357.443 464.119 354.843 463.032 352.246C461.944 349.649 459.882 348.038 458.426 348.648C456.97 349.258 456.67 351.857 457.758 354.454C458.845 357.051 460.907 358.662 462.363 358.052Z" fill="#414CE6"/>
<path d="M480.767 361.009C482.224 360.4 482.523 357.8 481.436 355.203C480.349 352.606 478.287 350.995 476.83 351.605C475.374 352.215 475.075 354.814 476.162 357.411C477.249 360.008 479.311 361.619 480.767 361.009Z" fill="#414CE6"/>
<path d="M471.296 357.075C472.364 354.469 472.044 351.87 470.582 351.272C469.121 350.673 467.07 352.301 466.003 354.907C464.936 357.514 465.255 360.112 466.717 360.711C468.179 361.309 470.229 359.682 471.296 357.075Z" fill="#414CE6"/>
<path d="M472.791 366.93C473.858 364.324 473.538 361.725 472.077 361.127C470.615 360.528 468.565 362.156 467.497 364.762C466.43 367.369 466.749 369.967 468.211 370.566C469.673 371.164 471.723 369.537 472.791 366.93Z" fill="#414CE6"/>
<path d="M481.877 382.798C483.34 379.226 482.902 375.665 480.898 374.844C478.895 374.024 476.085 376.255 474.622 379.827C473.159 383.4 473.597 386.961 475.6 387.781C477.604 388.602 480.414 386.371 481.877 382.798Z" fill="#414CE6"/>
<path d="M486.066 394.953C486.217 391.095 484.586 387.9 482.422 387.815C480.259 387.73 478.383 390.789 478.232 394.646C478.081 398.504 479.713 401.7 481.876 401.784C484.039 401.869 485.915 398.81 486.066 394.953Z" fill="#414CE6"/>
<path fill-rule="evenodd" clip-rule="evenodd" d="M222.135 123.107L221.072 116.836C221.02 116.528 221.092 116.211 221.273 115.956C221.455 115.7 221.73 115.528 222.038 115.475L247.13 111.222L248.588 119.82L223.505 124.071C223.197 124.123 222.88 124.051 222.625 123.87C222.37 123.689 222.197 123.413 222.145 123.105L222.135 123.107Z" fill="url(#paint19_linear)"/>
<path fill-rule="evenodd" clip-rule="evenodd" d="M248.593 119.81L253.583 115.96L253.153 113.22L247.133 111.22L248.593 119.81Z" fill="#D6E3FA"/>
<path d="M253.127 113.218L253.592 115.959L256.392 115.484L255.927 112.743L253.127 113.218Z" fill="url(#paint20_linear)"/>
<path fill-rule="evenodd" clip-rule="evenodd" d="M227.593 135.2C227.593 135.2 225.763 126.2 227.593 120.34C229.423 114.48 239.823 107.65 243.133 107.77C246.443 107.89 246.133 109.14 246.443 110.63C246.753 112.12 239.013 117.83 238.553 118.86C238.093 119.89 241.413 117.86 243.123 121.95C244.833 126.04 237.413 136.79 237.413 136.79L227.593 135.2Z" fill="url(#paint21_linear)"/>
<path fill-rule="evenodd" clip-rule="evenodd" d="M140.982 202.4L176.072 194.57C177.072 194.38 201.272 190.17 201.672 189.26L225.932 133.26C225.932 133.26 231.802 131.26 235.642 133.56L239.482 135.82C239.482 135.82 223.092 193.46 218.092 202.6C213.092 211.74 161.502 221.22 160.292 225.37C160.292 225.37 163.292 242.37 160.712 247.49C158.132 252.61 166.342 323.22 166.342 323.22C166.342 323.22 140.852 330.22 120.192 329.37C99.5316 328.52 90.6816 324.51 90.6816 324.51C90.6816 324.51 102.972 237.06 92.5816 215.56C89.5716 209.33 140.982 202.4 140.982 202.4Z" fill="url(#paint22_linear)"/>
<path fill-rule="evenodd" clip-rule="evenodd" d="M145.742 160.48C145.742 160.48 147.932 169.14 148.172 171.48C148.412 173.82 144.232 172.89 144.232 172.89L145.742 160.48Z" fill="url(#paint23_linear)"/>
<path fill-rule="evenodd" clip-rule="evenodd" d="M146.212 159C147.972 150.43 137.092 137.67 135.212 136.89C133.332 136.11 105.032 140.39 99.3316 147.46C93.6316 154.53 97.3316 162.94 97.3316 162.94C97.3316 162.94 100.782 161.24 97.8616 163.3C94.9416 165.36 91.3916 171.62 92.1016 175.57C93.0016 180.57 102.202 177.67 102.202 177.67C102.202 177.67 107.872 188.39 116.782 193.91L117.222 194.15L116.622 199.15C120.479 201.612 125.093 202.606 129.622 201.95C137.472 200.75 137.622 199.07 137.622 199.07L137.372 189.26C141.452 186.99 144.062 188.43 145.212 182.62C145.982 178.9 144.362 168 146.212 159Z" fill="url(#paint24_linear)"/>
<path fill-rule="evenodd" clip-rule="evenodd" d="M140.751 202.44C136.811 202.98 89.7514 209.6 92.6414 215.61C94.1314 218.7 95.1514 223.15 95.8214 228.5C109.641 234.89 136.651 239.35 140.751 202.44Z" fill="url(#paint25_linear)"/>
<path fill-rule="evenodd" clip-rule="evenodd" d="M147.721 148.78C144.721 155.78 139.111 155.59 139.531 158.86C149.231 234.44 102.441 218.04 90.9213 210.04C86.4513 206.93 82.7113 191.31 90.7713 174.69C99.0213 157.69 90.0413 155.64 95.6413 143.19C101.241 130.74 108.781 127.31 120.291 126.13C139.661 124.15 150.671 141.75 147.721 148.78Z" fill="url(#paint26_linear)"/>
<path fill-rule="evenodd" clip-rule="evenodd" d="M131.821 198.11C129.645 200.238 126.948 201.758 124 202.518C121.052 203.278 117.956 203.251 115.021 202.44C110.171 200.98 105.681 195.87 108.111 183.36C110.541 170.85 106.431 154.79 108.111 147.7C109.791 140.61 117.111 132.76 128.461 130.15C131.091 129.602 133.792 129.477 136.461 129.78C131.511 127.032 125.827 125.899 120.201 126.54C108.431 127.75 100.741 131.23 95.0014 143.99C89.2614 156.75 98.4614 158.79 90.0014 176.19C81.7614 193.19 85.5814 209.19 90.1514 212.33C100.291 219.38 137.221 232.8 140.891 186.92C138.112 190.841 135.082 194.579 131.821 198.11Z" fill="url(#paint27_linear)"/>
<path fill-rule="evenodd" clip-rule="evenodd" d="M218.162 202.64C223.162 193.49 239.552 135.86 239.552 135.86L237.282 134.53C237.282 134.53 219.962 190.12 214.882 195.53C209.802 200.94 152.982 212.34 147.302 217.3C141.622 222.26 161.672 236.48 161.672 236.48C161.302 230.84 160.362 225.41 160.362 225.41C161.572 221.26 213.162 211.79 218.162 202.64Z" fill="url(#paint28_linear)"/>
<path opacity="0.45" d="M398.991 72.51H359.521V111.98H398.991V72.51Z" fill="url(#paint29_linear)"/>
<path fill-rule="evenodd" clip-rule="evenodd" d="M347.723 106L353.723 104.24C359.723 102.48 359.503 89.9999 359.503 89.9999V69.1399H398.983V89.9999C398.983 89.9999 399.223 102.49 393.203 104.24L387.203 106H347.723Z" fill="url(#paint30_linear)"/>
<path opacity="0.45" d="M447.898 131.896L408.471 133.735L410.309 173.162L449.737 171.324L447.898 131.896Z" fill="url(#paint31_linear)"/>
<path fill-rule="evenodd" clip-rule="evenodd" d="M393.611 163.47L399.761 162.25C405.911 161.03 406.761 148.57 406.761 148.57L408.591 127.77L447.901 131.22L446.071 152C446.071 152 445.221 164.46 439.071 165.68L432.921 166.9L393.611 163.47Z" fill="url(#paint32_linear)"/>
<path fill-rule="evenodd" clip-rule="evenodd" d="M242.832 448.19L247.482 447.19C252.132 446.19 252.802 436.54 252.802 436.54L254.222 420.37L283.982 423L282.562 439.17C282.562 439.17 281.892 448.86 277.242 449.82L272.592 450.82L242.832 448.19Z" fill="url(#paint33_linear)"/>
<path opacity="0.45" d="M338.341 114.17H302.201V150.31H338.341V114.17Z" fill="url(#paint34_linear)"/>
<path fill-rule="evenodd" clip-rule="evenodd" d="M291.402 144.85L296.912 143.24C302.422 141.63 302.202 130.24 302.202 130.24V111.09H338.342V130.2C338.342 130.2 338.562 141.63 333.052 143.2L327.542 144.81L291.402 144.85Z" fill="url(#paint35_linear)"/>
<path opacity="0.45" d="M252.595 232.062L217.199 231.531L216.644 268.497L252.04 269.028L252.595 232.062Z" fill="url(#paint36_linear)"/>
<path fill-rule="evenodd" clip-rule="evenodd" d="M201.682 259.45L207.352 258.57C213.022 257.69 214.292 246.32 214.292 246.32L216.772 227.32L252.602 232L250.122 251C250.122 251 248.862 262.37 243.182 263.25L237.512 264.13L201.682 259.45Z" fill="url(#paint37_linear)"/>
<path fill-rule="evenodd" clip-rule="evenodd" d="M1.30273 545.73H579.433L539.753 531.06H37.9027L1.30273 545.73Z" fill="url(#paint38_linear)"/>
<path d="M262.861 107.77L281.921 77.5601H316.751" stroke="#707070" stroke-linecap="round"/>
<path d="M323.082 243.47L344.922 225.68H377.452" stroke="#707070" stroke-linecap="round"/>
<path d="M180.032 98.0401C183.959 98.0401 187.142 94.8568 187.142 90.9301C187.142 87.0033 183.959 83.8201 180.032 83.8201C176.105 83.8201 172.922 87.0033 172.922 90.9301C172.922 94.8568 176.105 98.0401 180.032 98.0401Z" stroke="#707070" stroke-linecap="round"/>
<path d="M262.862 131.96C266.789 131.96 269.972 128.777 269.972 124.85C269.972 120.923 266.789 117.74 262.862 117.74C258.935 117.74 255.752 120.923 255.752 124.85C255.752 128.777 258.935 131.96 262.862 131.96Z" stroke="#707070" stroke-linecap="round"/>
<path d="M284.651 200.83C288.578 200.83 291.761 197.647 291.761 193.72C291.761 189.793 288.578 186.61 284.651 186.61C280.724 186.61 277.541 189.793 277.541 193.72C277.541 197.647 280.724 200.83 284.651 200.83Z" stroke="#707070" stroke-linecap="round"/>
<path d="M314.872 259.85C318.798 259.85 321.982 256.667 321.982 252.74C321.982 248.813 318.798 245.63 314.872 245.63C310.945 245.63 307.762 248.813 307.762 252.74C307.762 256.667 310.945 259.85 314.872 259.85Z" stroke="#707070" stroke-linecap="round"/>
<path d="M277.542 204.09L262.862 221.11H224.502" stroke="#707070" stroke-linecap="round"/>
<path fill-rule="evenodd" clip-rule="evenodd" d="M333.291 393.47L338.671 395.28C344.051 397.09 349.021 388.86 349.021 388.86L357.641 375.29L388.141 394.67L379.521 408.24C379.521 408.24 374.521 416.47 369.171 414.66L363.791 412.85L333.291 393.47Z" fill="url(#paint39_linear)"/>
<path d="M364.871 76.45H392.311" stroke="white" stroke-linecap="round"/>
<path d="M364.871 83.8101L386.401 84.6501" stroke="white" stroke-linecap="round"/>
<path d="M364.871 92.24H386.401" stroke="white" stroke-linecap="round"/>
<path d="M308.441 119.14L328.661 119.81" stroke="white" stroke-linecap="round"/>
<path d="M308.441 127.76H331.711" stroke="white" stroke-linecap="round"/>
<path d="M427.981 139C418.641 138.24 416.931 143 416.361 147.39C415.791 151.78 421.251 157.93 427.541 156.08C433.831 154.23 435.421 151.77 435.041 146.63C434.661 141.49 430.851 140.15 430.851 140.15" stroke="white" stroke-linecap="round"/>
<path d="M425.652 147.34L439.762 142.67" stroke="white" stroke-linecap="round"/>
<path d="M220.432 236.48L242.792 239.44" stroke="white" stroke-linecap="round"/>
<path d="M220.432 246.55L236.622 247.82" stroke="white" stroke-linecap="round"/>
<path d="M218.652 252.74L242.792 253.92" stroke="white" stroke-linecap="round"/>
<path d="M284.652 63.8801L308.442 62.1001" stroke="#707070" stroke-linecap="round"/>
<path d="M284.652 70.23H311.182" stroke="#707070" stroke-linecap="round"/>
<path d="M346.701 213.78H370.081" stroke="#707070" stroke-linecap="round"/>
<path d="M347.723 219.74H370.083" stroke="#707070" stroke-linecap="round"/>
<path d="M228.531 213.78H246.461" stroke="#707070" stroke-linecap="round"/>
<path d="M228.531 208.69H255.751" stroke="#707070" stroke-linecap="round"/>
<path d="M307.752 13.3C311.154 13.3 313.912 10.3227 313.912 6.65C313.912 2.97731 311.154 0 307.752 0C304.35 0 301.592 2.97731 301.592 6.65C301.592 10.3227 304.35 13.3 307.752 13.3Z" fill="#FFD46A"/>
<path d="M516.781 133.03C520.183 133.03 522.941 130.053 522.941 126.38C522.941 122.707 520.183 119.73 516.781 119.73C513.379 119.73 510.621 122.707 510.621 126.38C510.621 130.053 513.379 133.03 516.781 133.03Z" fill="#FFD46A"/>
<path d="M80.701 133.03C84.1031 133.03 86.861 130.053 86.861 126.38C86.861 122.707 84.1031 119.73 80.701 119.73C77.2989 119.73 74.541 122.707 74.541 126.38C74.541 130.053 77.2989 133.03 80.701 133.03Z" fill="#FFD46A"/>
<path d="M192.912 361C196.314 361 199.072 358.023 199.072 354.35C199.072 350.677 196.314 347.7 192.912 347.7C189.51 347.7 186.752 350.677 186.752 354.35C186.752 358.023 189.51 361 192.912 361Z" fill="#FFD46A"/>
</g>
<defs>
<linearGradient id="paint0_linear" x1="278.411" y1="51.654" x2="304.206" y2="288.11" gradientUnits="userSpaceOnUse">
<stop stop-color="#EAF1FC"/>
<stop offset="1" stop-color="#C0D4F4"/>
</linearGradient>
<linearGradient id="paint1_linear" x1="390.16" y1="63.9221" x2="315.195" y2="254.802" gradientUnits="userSpaceOnUse">
<stop stop-color="#4959EA"/>
<stop offset="1" stop-color="#717AFA"/>
</linearGradient>
<linearGradient id="paint2_linear" x1="125.924" y1="271.726" x2="100.246" y2="270.26" gradientUnits="userSpaceOnUse">
<stop stop-color="#FFC063"/>
<stop offset="0.95" stop-color="#E44D0B"/>
</linearGradient>
<linearGradient id="paint3_linear" x1="53.2361" y1="494.755" x2="63.8729" y2="480.448" gradientUnits="userSpaceOnUse">
<stop stop-color="#002856"/>
<stop offset="1" stop-color="#041B48"/>
</linearGradient>
<linearGradient id="paint4_linear" x1="129.662" y1="516.248" x2="172.972" y2="516.248" gradientUnits="userSpaceOnUse">
<stop stop-color="#002856"/>
<stop offset="1" stop-color="#041B48"/>
</linearGradient>
<linearGradient id="paint5_linear" x1="88.1362" y1="441.906" x2="142.694" y2="394.302" gradientUnits="userSpaceOnUse">
<stop stop-color="#4769FF"/>
<stop offset="1" stop-color="#083B76"/>
</linearGradient>
<linearGradient id="paint6_linear" x1="278.598" y1="338.557" x2="132.22" y2="207.457" gradientUnits="userSpaceOnUse">
<stop stop-color="#223762"/>
<stop offset="1" stop-color="#041B48"/>
</linearGradient>
<linearGradient id="paint7_linear" x1="103.352" y1="410.965" x2="175.364" y2="410.965" gradientUnits="userSpaceOnUse">
<stop stop-color="#4769FF"/>
<stop offset="1" stop-color="#4959EA"/>
</linearGradient>
<linearGradient id="paint8_linear" x1="241.425" y1="529.873" x2="103.979" y2="512.381" gradientUnits="userSpaceOnUse">
<stop stop-color="#4959EA"/>
<stop offset="1" stop-color="#083B76"/>
</linearGradient>
<linearGradient id="paint9_linear" x1="486.283" y1="352.487" x2="554.404" y2="354.201" gradientUnits="userSpaceOnUse">
<stop stop-color="#002856"/>
<stop offset="1" stop-color="#041B48"/>
</linearGradient>
<linearGradient id="paint10_linear" x1="556.969" y1="144.768" x2="482.296" y2="158.295" gradientUnits="userSpaceOnUse">
<stop stop-color="#002856"/>
<stop offset="1" stop-color="#041B48"/>
</linearGradient>
<linearGradient id="paint11_linear" x1="456.393" y1="257.395" x2="488.243" y2="257.395" gradientUnits="userSpaceOnUse">
<stop stop-color="#4959EA"/>
<stop offset="1" stop-color="#083B76"/>
</linearGradient>
<linearGradient id="paint12_linear" x1="517.944" y1="158.954" x2="421.574" y2="173.755" gradientUnits="userSpaceOnUse">
<stop stop-color="#4769FF"/>
<stop offset="1" stop-color="#4959EA"/>
</linearGradient>
<linearGradient id="paint13_linear" x1="571.304" y1="220.169" x2="485.551" y2="253.439" gradientUnits="userSpaceOnUse">
<stop stop-color="#4769FF"/>
<stop offset="1" stop-color="#4959EA"/>
</linearGradient>
<linearGradient id="paint14_linear" x1="586.069" y1="445.559" x2="460.608" y2="501.563" gradientUnits="userSpaceOnUse">
<stop stop-color="#FF9F5B"/>
<stop offset="1" stop-color="#E5670E"/>
</linearGradient>
<linearGradient id="paint15_linear" x1="576.946" y1="484.44" x2="556.619" y2="484.44" gradientUnits="userSpaceOnUse">
<stop stop-color="#FF9F5B"/>
<stop offset="1" stop-color="#E5670E"/>
</linearGradient>
<linearGradient id="paint16_linear" x1="428.735" y1="262.464" x2="513.555" y2="321.701" gradientUnits="userSpaceOnUse">
<stop stop-color="#4959EA"/>
<stop offset="1" stop-color="#083B76"/>
</linearGradient>
<linearGradient id="paint17_linear" x1="444.107" y1="258.461" x2="528.925" y2="317.695" gradientUnits="userSpaceOnUse">
<stop stop-color="#4C93F4"/>
<stop offset="1" stop-color="#0B63DA"/>
</linearGradient>
<linearGradient id="paint18_linear" x1="439.294" y1="240.065" x2="560.816" y2="324.938" gradientUnits="userSpaceOnUse">
<stop stop-color="#4769FF"/>
<stop offset="1" stop-color="#4959EA"/>
</linearGradient>
<linearGradient id="paint19_linear" x1="229.96" y1="120.35" x2="231.52" y2="110.677" gradientUnits="userSpaceOnUse">
<stop stop-color="#959BF7"/>
<stop offset="1" stop-color="#717AFA"/>
</linearGradient>
<linearGradient id="paint20_linear" x1="254.992" y1="115.722" x2="254.529" y2="112.992" gradientUnits="userSpaceOnUse">
<stop stop-color="#9097FA"/>
<stop offset="1" stop-color="#717AFA"/>
</linearGradient>
<linearGradient id="paint21_linear" x1="235.593" y1="118.129" x2="244.051" y2="130.436" gradientUnits="userSpaceOnUse">
<stop stop-color="#F8A695"/>
<stop offset="1" stop-color="#E56045"/>
</linearGradient>
<linearGradient id="paint22_linear" x1="141.422" y1="310.137" x2="204.788" y2="111.299" gradientUnits="userSpaceOnUse">
<stop stop-color="#FFC063"/>
<stop offset="0.95" stop-color="#E44D0B"/>
</linearGradient>
<linearGradient id="paint23_linear" x1="148.526" y1="171.234" x2="142.554" y2="170.401" gradientUnits="userSpaceOnUse">
<stop stop-color="#F8A695"/>
<stop offset="1" stop-color="#E56045"/>
</linearGradient>
<linearGradient id="paint24_linear" x1="123.884" y1="184.764" x2="113.939" y2="156.074" gradientUnits="userSpaceOnUse">
<stop stop-color="#F8A695"/>
<stop offset="1" stop-color="#E56045"/>
</linearGradient>
<linearGradient id="paint25_linear" x1="139.256" y1="259.751" x2="128.877" y2="204.483" gradientUnits="userSpaceOnUse">
<stop stop-color="#FFC063"/>
<stop offset="0.95" stop-color="#E44D0B"/>
</linearGradient>
<linearGradient id="paint26_linear" x1="111.772" y1="155.105" x2="139.864" y2="196.536" gradientUnits="userSpaceOnUse">
<stop stop-color="#002856"/>
<stop offset="1" stop-color="#002856"/>
</linearGradient>
<linearGradient id="paint27_linear" x1="136.712" y1="143.547" x2="105.752" y2="159.847" gradientUnits="userSpaceOnUse">
<stop stop-color="#223762"/>
<stop offset="1" stop-color="#002856"/>
</linearGradient>
<linearGradient id="paint28_linear" x1="226.216" y1="221.289" x2="194.292" y2="187.093" gradientUnits="userSpaceOnUse">
<stop stop-color="#FFC063"/>
<stop offset="0.95" stop-color="#E44D0B"/>
</linearGradient>
<linearGradient id="paint29_linear" x1="374.165" y1="110.401" x2="386.993" y2="64.5765" gradientUnits="userSpaceOnUse">
<stop stop-color="#223762"/>
<stop offset="1" stop-color="#041B48"/>
</linearGradient>
<linearGradient id="paint30_linear" x1="371.457" y1="106.921" x2="378.318" y2="59.5489" gradientUnits="userSpaceOnUse">
<stop stop-color="#9FA4F5"/>
<stop offset="1" stop-color="#717AFA"/>
</linearGradient>
<linearGradient id="paint31_linear" x1="424.863" y1="170.903" x2="435.542" y2="124.531" gradientUnits="userSpaceOnUse">
<stop stop-color="#223762"/>
<stop offset="1" stop-color="#041B48"/>
</linearGradient>
<linearGradient id="paint32_linear" x1="417.173" y1="166.47" x2="426.332" y2="119.767" gradientUnits="userSpaceOnUse">
<stop stop-color="#9FA4F5"/>
<stop offset="1" stop-color="#717AFA"/>
</linearGradient>
<linearGradient id="paint33_linear" x1="262.008" y1="449.754" x2="269.362" y2="413.618" gradientUnits="userSpaceOnUse">
<stop stop-color="#9FA4F5"/>
<stop offset="1" stop-color="#717AFA"/>
</linearGradient>
<linearGradient id="paint34_linear" x1="315.609" y1="148.864" x2="327.355" y2="106.906" gradientUnits="userSpaceOnUse">
<stop stop-color="#223762"/>
<stop offset="1" stop-color="#041B48"/>
</linearGradient>
<linearGradient id="paint35_linear" x1="314.873" y1="114.567" x2="314.873" y2="186.848" gradientUnits="userSpaceOnUse">
<stop stop-color="#FFC063"/>
<stop offset="0.95" stop-color="#E44D0B"/>
</linearGradient>
<linearGradient id="paint36_linear" x1="229.95" y1="266.552" x2="243.09" y2="224.216" gradientUnits="userSpaceOnUse">
<stop stop-color="#223762"/>
<stop offset="1" stop-color="#041B48"/>
</linearGradient>
<linearGradient id="paint37_linear" x1="228.873" y1="232.473" x2="223.956" y2="304.447" gradientUnits="userSpaceOnUse">
<stop stop-color="#FFC063"/>
<stop offset="0.95" stop-color="#E44D0B"/>
</linearGradient>
<linearGradient id="paint38_linear" x1="579.433" y1="538.395" x2="1.30273" y2="538.395" gradientUnits="userSpaceOnUse">
<stop stop-color="#002856"/>
<stop offset="1" stop-color="#041B48"/>
</linearGradient>
<linearGradient id="paint39_linear" x1="363.678" y1="386.902" x2="345.164" y2="442.859" gradientUnits="userSpaceOnUse">
<stop stop-color="#FFC063"/>
<stop offset="0.95" stop-color="#E44D0B"/>
</linearGradient>
<clipPath id="clip0">
<rect width="600.024" height="545.73" fill="white"/>
</clipPath>
</defs>
</svg>
